<svg width="24" height="21" viewBox="0 0 24 21" fill="none" xmlns="http://www.w3.org/2000/svg">
<path fill-rule="evenodd" clip-rule="evenodd" d="M11.7759 3C12.1901 3 12.5259 3.33579 12.5259 3.75V5.09344C14.6542 5.45044 16.276 7.30145 16.276 9.53125V13.875L16.7475 14.5626L16.8137 14.6591L17.3014 15.3705L17.5076 15.6712C17.6213 15.8371 17.5025 16.0626 17.3014 16.0626H16.9367H16.0743H15.9572H7.59461H7.47751H6.61506H6.25043C6.04928 16.0626 5.93049 15.8371 6.04424 15.6712L6.25043 15.3705L6.73812 14.6591L6.80434 14.5626L7.27603 13.8746V9.53125C7.27603 7.30155 8.89767 5.45061 11.0259 5.09349V3.75C11.0259 3.33579 11.3617 3 11.7759 3ZM14.9288 14.5626L14.776 14.3398V13.875V9.53125C14.776 7.8744 13.4329 6.53125 11.776 6.53125C10.1192 6.53125 8.77603 7.87439 8.77603 9.53125V13.8746V14.3394L8.62304 14.5626H14.9288ZM9.57129 17.5312C9.57129 17.3586 9.59317 17.1911 9.6343 17.0312H13.5083C13.5494 17.1911 13.5713 17.3586 13.5713 17.5312C13.5713 18.6358 12.6759 19.5312 11.5713 19.5312C10.4667 19.5312 9.57129 18.6358 9.57129 17.5312Z" fill="white"/>
</svg>
