<svg width="24" height="24" viewBox="0 0 24 24" fill="none" xmlns="http://www.w3.org/2000/svg">
<path d="M20 4C20.5523 4 21 4.44772 21 5V16C21 16.5523 20.5523 17 20 17H13.3028C13.1054 17 12.9123 17.0584 12.7481 17.1679L8.5547 19.9635C7.89015 20.4066 7 19.9302 7 19.1315V18C7 17.4477 6.55228 17 6 17H4C3.44772 17 3 16.5523 3 16V5C3 4.44772 3.44772 4 4 4H20Z" stroke="black" stroke-opacity="0.5" stroke-linejoin="round"/>
<path d="M15 10H9" stroke="black" stroke-opacity="0.5" stroke-linecap="round"/>
<path d="M12 7V13" stroke="black" stroke-opacity="0.5" stroke-linecap="round"/>
</svg>
