<svg width="32" height="32" viewBox="0 0 32 32" fill="none" xmlns="http://www.w3.org/2000/svg">
<path fill-rule="evenodd" clip-rule="evenodd" d="M15.9998 17.3332C16.7362 17.3332 17.3332 16.7362 17.3332 15.9998C17.3332 15.2635 16.7362 14.6665 15.9998 14.6665C15.2635 14.6665 14.6665 15.2635 14.6665 15.9998C14.6665 16.7362 15.2635 17.3332 15.9998 17.3332Z" fill="#7F7F7F" stroke="#7F7F7F"/>
<path fill-rule="evenodd" clip-rule="evenodd" d="M7.99984 17.3332C8.73622 17.3332 9.33317 16.7362 9.33317 15.9998C9.33317 15.2635 8.73622 14.6665 7.99984 14.6665C7.26346 14.6665 6.6665 15.2635 6.6665 15.9998C6.6665 16.7362 7.26346 17.3332 7.99984 17.3332Z" fill="#7F7F7F" stroke="#7F7F7F"/>
<path fill-rule="evenodd" clip-rule="evenodd" d="M23.9998 17.3332C24.7362 17.3332 25.3332 16.7362 25.3332 15.9998C25.3332 15.2635 24.7362 14.6665 23.9998 14.6665C23.2635 14.6665 22.6665 15.2635 22.6665 15.9998C22.6665 16.7362 23.2635 17.3332 23.9998 17.3332Z" fill="#7F7F7F" stroke="#7F7F7F"/>
</svg>
