<svg width="32" height="31" viewBox="0 0 32 31" fill="none" xmlns="http://www.w3.org/2000/svg">
<path d="M1.29419 23.1622C1.29419 20.2669 5.17682 20.2669 7.11813 18.3367C8.08879 17.3716 5.17682 17.3716 5.17682 12.5462C5.17682 9.32951 6.4707 7.7207 9.05945 7.7207C11.6482 7.7207 12.9421 9.32951 12.9421 12.5462C12.9421 17.3716 10.0301 17.3716 11.0008 18.3367C12.9421 20.2669 16.8247 20.2669 16.8247 23.1622" stroke="black" stroke-width="2" stroke-linecap="round"/>
<path d="M15.5237 20.9014C16.2575 20.3986 17.2101 20.0366 18.1216 19.6001C18.8343 19.2588 19.5219 18.872 20.0602 18.3367C21.0309 17.3716 18.1189 17.3716 18.1189 12.5462C18.1189 9.32951 19.4128 7.7207 22.0015 7.7207C24.5903 7.7207 25.8842 9.32951 25.8842 12.5462C25.8842 17.3716 22.9722 17.3716 23.9429 18.3367C25.8842 20.2669 29.7668 20.2669 29.7668 23.1622" stroke="black" stroke-width="2" stroke-linecap="round"/>
</svg>
