<svg width="22" height="22" viewBox="0 0 22 22" fill="none" xmlns="http://www.w3.org/2000/svg">
<mask id="path-1-inside-1_187_4082" fill="white">
<path fill-rule="evenodd" clip-rule="evenodd" d="M11 9.85714C12.933 9.85714 14.5 8.32212 14.5 6.42857C14.5 4.53502 12.933 3 11 3C9.067 3 7.5 4.53502 7.5 6.42857C7.5 8.32212 9.067 9.85714 11 9.85714ZM5 15C5 13.3431 6.34315 12 8 12H14C15.6569 12 17 13.3431 17 15V18H5V15ZM4 15C4 12.7909 5.79086 11 8 11H14C16.2091 11 18 12.7909 18 15V18.75C18 18.8881 17.8881 19 17.75 19H4.25C4.11193 19 4 18.8881 4 18.75V15Z"/>
</mask>
<path d="M17 18V19H18V18H17ZM5 18H4V19H5V18ZM13.5 6.42857C13.5 7.7505 12.4003 8.85714 11 8.85714V10.8571C13.4657 10.8571 15.5 8.89374 15.5 6.42857H13.5ZM11 4C12.4003 4 13.5 5.10665 13.5 6.42857H15.5C15.5 3.9634 13.4657 2 11 2V4ZM8.5 6.42857C8.5 5.10665 9.59975 4 11 4V2C8.53426 2 6.5 3.9634 6.5 6.42857H8.5ZM11 8.85714C9.59975 8.85714 8.5 7.7505 8.5 6.42857H6.5C6.5 8.89374 8.53426 10.8571 11 10.8571V8.85714ZM8 11C5.79086 11 4 12.7909 4 15H6C6 13.8954 6.89543 13 8 13V11ZM14 11H8V13H14V11ZM18 15C18 12.7909 16.2091 11 14 11V13C15.1046 13 16 13.8954 16 15H18ZM18 18V15H16V18H18ZM5 19H17V17H5V19ZM4 15V18H6V15H4ZM8 10C5.23858 10 3 12.2386 3 15H5C5 13.3431 6.34315 12 8 12V10ZM14 10H8V12H14V10ZM19 15C19 12.2386 16.7614 10 14 10V12C15.6569 12 17 13.3431 17 15H19ZM19 18.75V15H17V18.75H19ZM17.75 20C18.4403 20 19 19.4404 19 18.75H17C17 18.3358 17.3358 18 17.75 18V20ZM4.25 20H17.75V18H4.25V20ZM3 18.75C3 19.4404 3.55965 20 4.25 20V18C4.66421 18 5 18.3358 5 18.75H3ZM3 15V18.75H5V15H3Z" fill="black" fill-opacity="0.45" mask="url(#path-1-inside-1_187_4082)"/>
</svg>
