<svg width="75" height="43" viewBox="0 0 75 43" fill="none" xmlns="http://www.w3.org/2000/svg">
<rect width="75" height="43" rx="21.5" fill="#47566C"/>
<g clip-path="url(#clip0_193_2938)">
<rect x="8" y="5" width="34" height="34" rx="17" fill="white"/>
<path d="M13 34C13 29.5 19 29.5 22 26.5C23.5 25 19 25 19 17.5C19 12.5005 20.9995 10 25 10C29.0005 10 31 12.5005 31 17.5C31 25 26.5 25 28 26.5C31 29.5 37 29.5 37 34" stroke="black" stroke-linecap="round"/>
</g>
<rect x="8.5" y="5.5" width="33" height="33" rx="16.5" stroke="black"/>
<path d="M55 23.8569L59.6606 20.0768" stroke="white" stroke-linecap="round"/>
<path d="M49.9357 20.0765L54.5963 23.8567" stroke="white" stroke-linecap="round"/>
<defs>
<clipPath id="clip0_193_2938">
<rect x="8" y="5" width="34" height="34" rx="17" fill="white"/>
</clipPath>
</defs>
</svg>
