<svg width="22" height="22" viewBox="0 0 22 22" fill="none" xmlns="http://www.w3.org/2000/svg">
<path fill-rule="evenodd" clip-rule="evenodd" d="M13.4166 6.5835H8.58325C7.47868 6.5835 6.58325 7.47893 6.58325 8.58349V13.4168C6.58325 14.5214 7.47868 15.4168 8.58325 15.4168H13.4166C14.5212 15.4168 15.4166 14.5214 15.4166 13.4168V8.5835C15.4166 7.47892 14.5212 6.5835 13.4166 6.5835ZM8.58325 4.5835C6.37411 4.5835 4.58325 6.37435 4.58325 8.58349V13.4168C4.58325 15.626 6.37411 17.4168 8.58325 17.4168H13.4166C15.6257 17.4168 17.4166 15.626 17.4166 13.4168V8.5835C17.4166 6.37436 15.6257 4.5835 13.4166 4.5835H8.58325Z" fill="#8589F8"/>
</svg>
